<mxfile host="app.diagrams.net" modified="2021-01-10T08:30:41.933Z" agent="5.0 (Macintosh; Intel Mac OS X 10_13_6) AppleWebKit/537.36 (KHTML, like Gecko) Chrome/87.0.4280.141 Safari/537.36" etag="X4nM8sFrElHnuGxtRp5N" version="13.10.0" type="github">
  <diagram id="6I0OCvxSQrVGMHxT2VVA" name="Page-1">
    <mxGraphModel dx="946" dy="581" grid="1" gridSize="10" guides="1" tooltips="1" connect="1" arrows="1" fold="1" page="1" pageScale="1" pageWidth="850" pageHeight="1100" math="0" shadow="0">
      <root>
        <mxCell id="0" />
        <mxCell id="1" parent="0" />
        <mxCell id="Yvi_lJ4tg9lirpw7Dg8K-16" value="接" style="edgeStyle=none;rounded=0;orthogonalLoop=1;jettySize=auto;html=1;exitX=1;exitY=0.5;exitDx=0;exitDy=0;entryX=0;entryY=0.5;entryDx=0;entryDy=0;" edge="1" parent="1" source="Yvi_lJ4tg9lirpw7Dg8K-1" target="Yvi_lJ4tg9lirpw7Dg8K-11">
          <mxGeometry relative="1" as="geometry" />
        </mxCell>
        <mxCell id="Yvi_lJ4tg9lirpw7Dg8K-1" value="" style="rounded=0;whiteSpace=wrap;html=1;dashed=1;" vertex="1" parent="1">
          <mxGeometry x="90" y="210" width="80" height="170" as="geometry" />
        </mxCell>
        <mxCell id="Yvi_lJ4tg9lirpw7Dg8K-2" value="H5" style="rounded=1;whiteSpace=wrap;html=1;fillColor=#f5f5f5;strokeColor=#666666;fontColor=#333333;" vertex="1" parent="1">
          <mxGeometry x="98" y="230" width="65" height="30" as="geometry" />
        </mxCell>
        <mxCell id="Yvi_lJ4tg9lirpw7Dg8K-13" style="rounded=0;orthogonalLoop=1;jettySize=auto;html=1;entryX=0;entryY=0.75;entryDx=0;entryDy=0;exitX=1;exitY=0.5;exitDx=0;exitDy=0;" edge="1" parent="1" source="Yvi_lJ4tg9lirpw7Dg8K-1" target="Yvi_lJ4tg9lirpw7Dg8K-8">
          <mxGeometry relative="1" as="geometry">
            <mxPoint x="180" y="290" as="sourcePoint" />
          </mxGeometry>
        </mxCell>
        <mxCell id="Yvi_lJ4tg9lirpw7Dg8K-14" value="就" style="edgeLabel;html=1;align=center;verticalAlign=middle;resizable=0;points=[];" vertex="1" connectable="0" parent="Yvi_lJ4tg9lirpw7Dg8K-13">
          <mxGeometry x="-0.0158" y="2" relative="1" as="geometry">
            <mxPoint as="offset" />
          </mxGeometry>
        </mxCell>
        <mxCell id="Yvi_lJ4tg9lirpw7Dg8K-15" value="近" style="edgeStyle=none;rounded=0;orthogonalLoop=1;jettySize=auto;html=1;entryX=0;entryY=0.5;entryDx=0;entryDy=0;" edge="1" parent="1" target="Yvi_lJ4tg9lirpw7Dg8K-10">
          <mxGeometry relative="1" as="geometry">
            <mxPoint x="170" y="295" as="sourcePoint" />
          </mxGeometry>
        </mxCell>
        <mxCell id="Yvi_lJ4tg9lirpw7Dg8K-5" value="APP" style="rounded=1;whiteSpace=wrap;html=1;fillColor=#f5f5f5;strokeColor=#666666;fontColor=#333333;" vertex="1" parent="1">
          <mxGeometry x="98" y="280" width="65" height="30" as="geometry" />
        </mxCell>
        <mxCell id="Yvi_lJ4tg9lirpw7Dg8K-6" value="小程序" style="rounded=1;whiteSpace=wrap;html=1;fillColor=#f5f5f5;strokeColor=#666666;fontColor=#333333;" vertex="1" parent="1">
          <mxGeometry x="98" y="330" width="65" height="30" as="geometry" />
        </mxCell>
        <mxCell id="Yvi_lJ4tg9lirpw7Dg8K-8" value="sparta(深圳)" style="rounded=1;whiteSpace=wrap;html=1;fillColor=#60a917;strokeColor=#2D7600;fontColor=#ffffff;" vertex="1" parent="1">
          <mxGeometry x="200" y="205" width="70" height="30" as="geometry" />
        </mxCell>
        <mxCell id="Yvi_lJ4tg9lirpw7Dg8K-10" value="sparta(上海)" style="rounded=1;whiteSpace=wrap;html=1;fillColor=#60a917;strokeColor=#2D7600;fontColor=#ffffff;" vertex="1" parent="1">
          <mxGeometry x="200" y="255" width="70" height="30" as="geometry" />
        </mxCell>
        <mxCell id="Yvi_lJ4tg9lirpw7Dg8K-11" value="sparta(天津)" style="rounded=1;whiteSpace=wrap;html=1;fillColor=#60a917;strokeColor=#2D7600;fontColor=#ffffff;" vertex="1" parent="1">
          <mxGeometry x="200" y="305" width="70" height="30" as="geometry" />
        </mxCell>
        <mxCell id="Yvi_lJ4tg9lirpw7Dg8K-12" value="sparta(香港)" style="rounded=1;whiteSpace=wrap;html=1;fillColor=#60a917;strokeColor=#2D7600;fontColor=#ffffff;" vertex="1" parent="1">
          <mxGeometry x="200" y="355" width="70" height="30" as="geometry" />
        </mxCell>
        <mxCell id="Yvi_lJ4tg9lirpw7Dg8K-17" value="入" style="edgeStyle=none;rounded=0;orthogonalLoop=1;jettySize=auto;html=1;exitX=1;exitY=0.5;exitDx=0;exitDy=0;entryX=0;entryY=0.5;entryDx=0;entryDy=0;" edge="1" parent="1" source="Yvi_lJ4tg9lirpw7Dg8K-1" target="Yvi_lJ4tg9lirpw7Dg8K-12">
          <mxGeometry relative="1" as="geometry">
            <mxPoint x="180" y="305" as="sourcePoint" />
            <mxPoint x="210" y="316.53846153846155" as="targetPoint" />
          </mxGeometry>
        </mxCell>
        <mxCell id="Yvi_lJ4tg9lirpw7Dg8K-23" value="AccessServer&lt;br&gt;(深圳)" style="rounded=1;whiteSpace=wrap;html=1;fillColor=#1ba1e2;strokeColor=#006EAF;fontColor=#ffffff;" vertex="1" parent="1">
          <mxGeometry x="310" y="170" width="80" height="50" as="geometry" />
        </mxCell>
        <mxCell id="Yvi_lJ4tg9lirpw7Dg8K-24" value="AccessServer&lt;br&gt;(上海)" style="rounded=1;whiteSpace=wrap;html=1;fillColor=#1ba1e2;strokeColor=#006EAF;fontColor=#ffffff;" vertex="1" parent="1">
          <mxGeometry x="310" y="245" width="80" height="50" as="geometry" />
        </mxCell>
        <mxCell id="Yvi_lJ4tg9lirpw7Dg8K-25" value="AccessServer&lt;br&gt;(天津)" style="rounded=1;whiteSpace=wrap;html=1;fillColor=#1ba1e2;strokeColor=#006EAF;fontColor=#ffffff;" vertex="1" parent="1">
          <mxGeometry x="310" y="320" width="80" height="50" as="geometry" />
        </mxCell>
        <mxCell id="Yvi_lJ4tg9lirpw7Dg8K-26" value="AccessServer&lt;br&gt;(香港)" style="rounded=1;whiteSpace=wrap;html=1;fillColor=#1ba1e2;strokeColor=#006EAF;fontColor=#ffffff;" vertex="1" parent="1">
          <mxGeometry x="310" y="390" width="80" height="50" as="geometry" />
        </mxCell>
      </root>
    </mxGraphModel>
  </diagram>
</mxfile>
